G04 MADE WITH FRITZING*
G04 WWW.FRITZING.ORG*
G04 DOUBLE SIDED*
G04 HOLES PLATED*
G04 CONTOUR ON CENTER OF CONTOUR VECTOR*
%ASAXBY*%
%FSLAX23Y23*%
%MOIN*%
%OFA0B0*%
%SFA1.0B1.0*%
%ADD10C,0.082000*%
%ADD11C,0.078000*%
%ADD12C,0.065000*%
%ADD13C,0.062992*%
%ADD14C,0.059370*%
%ADD15C,0.083307*%
%ADD16C,0.075000*%
%ADD17C,0.070925*%
%ADD18C,0.070866*%
%ADD19R,0.082000X0.082000*%
%ADD20R,0.062992X0.062992*%
%ADD21C,0.024000*%
%ADD22C,0.020000*%
%ADD23R,0.001000X0.001000*%
%LNCOPPER0*%
G90*
G70*
G54D10*
X2646Y559D03*
X2546Y559D03*
X2446Y559D03*
G54D11*
X2546Y759D03*
X2646Y759D03*
G54D12*
X2647Y259D03*
X2547Y259D03*
X2346Y259D03*
X2446Y259D03*
G54D11*
X1846Y959D03*
G54D13*
X846Y160D03*
X846Y259D03*
G54D14*
X2046Y759D03*
X2046Y459D03*
X1846Y759D03*
X1846Y459D03*
G54D15*
X2446Y859D03*
X2346Y859D03*
X2246Y859D03*
X2146Y859D03*
X2446Y959D03*
X2346Y959D03*
X2246Y959D03*
X2146Y959D03*
G54D16*
X1746Y759D03*
X1746Y459D03*
X1646Y759D03*
X1646Y459D03*
X1546Y759D03*
X1546Y459D03*
X1446Y759D03*
X1446Y459D03*
X1346Y759D03*
X1346Y459D03*
X1246Y759D03*
X1246Y459D03*
X1146Y759D03*
X1146Y459D03*
X1046Y759D03*
X1046Y459D03*
X946Y759D03*
X946Y459D03*
X846Y759D03*
X846Y459D03*
X746Y759D03*
X746Y459D03*
X646Y759D03*
X646Y459D03*
X546Y759D03*
X546Y459D03*
X446Y759D03*
X446Y459D03*
G54D15*
X1746Y259D03*
X1646Y259D03*
X1546Y259D03*
X1446Y259D03*
X1346Y259D03*
X1246Y259D03*
X1146Y259D03*
X146Y159D03*
X146Y259D03*
X146Y359D03*
X146Y459D03*
X146Y559D03*
X146Y659D03*
X146Y759D03*
X146Y859D03*
X146Y959D03*
X1646Y959D03*
X1546Y959D03*
X1446Y959D03*
X1346Y959D03*
X1246Y959D03*
X2146Y259D03*
X2046Y259D03*
G54D17*
X753Y959D03*
G54D18*
X946Y959D03*
G54D12*
X1046Y1059D03*
X1146Y1059D03*
X646Y1059D03*
X546Y1059D03*
G54D16*
X2246Y759D03*
X2246Y359D03*
X1346Y159D03*
X946Y159D03*
G54D19*
X2646Y559D03*
G54D20*
X846Y160D03*
G54D21*
X2045Y958D02*
X1877Y959D01*
D02*
X2046Y790D02*
X2045Y958D01*
D02*
X2218Y759D02*
X2077Y759D01*
D02*
X1846Y559D02*
X1147Y559D01*
D02*
X1147Y559D02*
X1147Y487D01*
D02*
X1846Y490D02*
X1846Y559D01*
D02*
X2014Y259D02*
X1846Y260D01*
D02*
X1846Y260D02*
X1846Y428D01*
D02*
X1048Y858D02*
X1147Y858D01*
D02*
X1147Y858D02*
X1147Y1034D01*
D02*
X1047Y787D02*
X1048Y858D01*
D02*
X1048Y260D02*
X948Y260D01*
D02*
X948Y260D02*
X947Y430D01*
D02*
X1047Y159D02*
X1048Y260D01*
D02*
X1318Y159D02*
X1047Y159D01*
D02*
X2348Y859D02*
X2414Y859D01*
D02*
X2348Y361D02*
X2348Y859D01*
D02*
X2275Y359D02*
X2348Y361D01*
D02*
X2348Y361D02*
X2347Y284D01*
D02*
X2275Y359D02*
X2348Y361D01*
D02*
X2646Y527D02*
X2646Y284D01*
D02*
X2546Y527D02*
X2546Y284D01*
D02*
X2646Y591D02*
X2646Y729D01*
D02*
X2545Y957D02*
X2479Y958D01*
D02*
X2546Y789D02*
X2545Y957D01*
D02*
X2546Y591D02*
X2546Y729D01*
D02*
X1346Y292D02*
X1346Y430D01*
D02*
X1646Y430D02*
X1646Y292D01*
D02*
X1546Y292D02*
X1546Y430D01*
D02*
X1446Y430D02*
X1446Y292D01*
D02*
X946Y787D02*
X946Y932D01*
D02*
X1048Y958D02*
X973Y959D01*
D02*
X1047Y1034D02*
X1048Y958D01*
D02*
X1132Y288D02*
X1059Y433D01*
D02*
X845Y958D02*
X780Y959D01*
D02*
X846Y787D02*
X845Y958D01*
D02*
X648Y957D02*
X727Y958D01*
D02*
X564Y1041D02*
X648Y957D01*
D02*
X2345Y559D02*
X2414Y559D01*
D02*
X2346Y284D02*
X2345Y559D01*
D02*
X1746Y958D02*
X1816Y959D01*
D02*
X1746Y787D02*
X1746Y958D01*
D02*
X918Y159D02*
X873Y160D01*
D02*
X1646Y926D02*
X1646Y787D01*
D02*
X1446Y926D02*
X1446Y787D01*
D02*
X1346Y926D02*
X1346Y787D01*
D02*
X1246Y926D02*
X1246Y787D01*
D02*
X1546Y926D02*
X1546Y787D01*
D02*
X1746Y292D02*
X1746Y430D01*
D02*
X446Y957D02*
X626Y779D01*
D02*
X178Y869D02*
X446Y957D01*
D02*
X446Y60D02*
X178Y149D01*
D02*
X826Y439D02*
X446Y60D01*
D02*
X446Y1060D02*
X726Y779D01*
D02*
X178Y969D02*
X446Y1060D01*
D02*
X446Y859D02*
X526Y779D01*
D02*
X178Y769D02*
X446Y859D01*
D02*
X446Y657D02*
X446Y730D01*
D02*
X179Y659D02*
X446Y657D01*
D02*
X446Y159D02*
X726Y439D01*
D02*
X178Y249D02*
X446Y159D01*
D02*
X446Y258D02*
X626Y439D01*
D02*
X178Y348D02*
X446Y258D01*
D02*
X446Y361D02*
X526Y439D01*
D02*
X178Y449D02*
X446Y361D01*
D02*
X446Y558D02*
X446Y487D01*
D02*
X179Y559D02*
X446Y558D01*
D02*
X647Y1160D02*
X647Y1084D01*
D02*
X1147Y1160D02*
X647Y1160D01*
D02*
X1147Y1084D02*
X1147Y1160D01*
D02*
X846Y286D02*
X846Y430D01*
D02*
X2146Y159D02*
X1375Y159D01*
D02*
X2146Y226D02*
X2146Y159D01*
D02*
X2148Y360D02*
X2218Y359D01*
D02*
X2147Y292D02*
X2148Y360D01*
D02*
X1048Y559D02*
X1147Y559D01*
D02*
X1147Y559D02*
X1147Y487D01*
D02*
X1047Y730D02*
X1048Y559D01*
D02*
X1246Y292D02*
X1246Y430D01*
D02*
X1147Y659D02*
X1147Y730D01*
D02*
X1846Y659D02*
X1147Y659D01*
D02*
X2148Y559D02*
X1945Y559D01*
D02*
X1945Y559D02*
X1846Y659D01*
D02*
X2147Y292D02*
X2148Y559D01*
D02*
X2214Y859D02*
X2179Y859D01*
D02*
X2279Y859D02*
X2314Y859D01*
D02*
X2379Y859D02*
X2414Y859D01*
D02*
X2379Y959D02*
X2414Y959D01*
D02*
X2314Y959D02*
X2279Y959D01*
D02*
X2214Y959D02*
X2179Y959D01*
D02*
X1171Y1059D02*
X1248Y1059D01*
D02*
X1248Y1059D02*
X2146Y1059D01*
D02*
X2146Y1059D02*
X2146Y992D01*
G54D22*
X1774Y731D02*
X1719Y731D01*
X1719Y786D01*
X1774Y786D01*
X1774Y731D01*
D02*
G54D23*
X1816Y789D02*
X1875Y789D01*
X2016Y789D02*
X2075Y789D01*
X1816Y788D02*
X1875Y788D01*
X2016Y788D02*
X2075Y788D01*
X1816Y787D02*
X1875Y787D01*
X2016Y787D02*
X2075Y787D01*
X1816Y786D02*
X1875Y786D01*
X2016Y786D02*
X2075Y786D01*
X1816Y785D02*
X1875Y785D01*
X2016Y785D02*
X2075Y785D01*
X1816Y784D02*
X1875Y784D01*
X2016Y784D02*
X2075Y784D01*
X1816Y783D02*
X1875Y783D01*
X2016Y783D02*
X2075Y783D01*
X1816Y782D02*
X1875Y782D01*
X2016Y782D02*
X2075Y782D01*
X1816Y781D02*
X1875Y781D01*
X2016Y781D02*
X2075Y781D01*
X1816Y780D02*
X1875Y780D01*
X2016Y780D02*
X2075Y780D01*
X1816Y779D02*
X1840Y779D01*
X1851Y779D02*
X1875Y779D01*
X2016Y779D02*
X2040Y779D01*
X2051Y779D02*
X2075Y779D01*
X1816Y778D02*
X1837Y778D01*
X1854Y778D02*
X1875Y778D01*
X2016Y778D02*
X2037Y778D01*
X2054Y778D02*
X2075Y778D01*
X1816Y777D02*
X1835Y777D01*
X1856Y777D02*
X1875Y777D01*
X2016Y777D02*
X2035Y777D01*
X2056Y777D02*
X2075Y777D01*
X1816Y776D02*
X1834Y776D01*
X1857Y776D02*
X1875Y776D01*
X2016Y776D02*
X2034Y776D01*
X2057Y776D02*
X2075Y776D01*
X1816Y775D02*
X1832Y775D01*
X1859Y775D02*
X1875Y775D01*
X2016Y775D02*
X2032Y775D01*
X2059Y775D02*
X2075Y775D01*
X1816Y774D02*
X1831Y774D01*
X1860Y774D02*
X1875Y774D01*
X2016Y774D02*
X2031Y774D01*
X2060Y774D02*
X2075Y774D01*
X1816Y773D02*
X1830Y773D01*
X1861Y773D02*
X1875Y773D01*
X2016Y773D02*
X2030Y773D01*
X2061Y773D02*
X2075Y773D01*
X1816Y772D02*
X1830Y772D01*
X1862Y772D02*
X1875Y772D01*
X2016Y772D02*
X2030Y772D01*
X2062Y772D02*
X2075Y772D01*
X1816Y771D02*
X1829Y771D01*
X1862Y771D02*
X1875Y771D01*
X2016Y771D02*
X2029Y771D01*
X2062Y771D02*
X2075Y771D01*
X1816Y770D02*
X1828Y770D01*
X1863Y770D02*
X1875Y770D01*
X2016Y770D02*
X2028Y770D01*
X2063Y770D02*
X2075Y770D01*
X1816Y769D02*
X1828Y769D01*
X1863Y769D02*
X1875Y769D01*
X2016Y769D02*
X2028Y769D01*
X2063Y769D02*
X2075Y769D01*
X1816Y768D02*
X1827Y768D01*
X1864Y768D02*
X1875Y768D01*
X2016Y768D02*
X2027Y768D01*
X2064Y768D02*
X2075Y768D01*
X1816Y767D02*
X1827Y767D01*
X1864Y767D02*
X1875Y767D01*
X2016Y767D02*
X2027Y767D01*
X2064Y767D02*
X2075Y767D01*
X1816Y766D02*
X1826Y766D01*
X1865Y766D02*
X1875Y766D01*
X2016Y766D02*
X2026Y766D01*
X2065Y766D02*
X2075Y766D01*
X1816Y765D02*
X1826Y765D01*
X1865Y765D02*
X1875Y765D01*
X2016Y765D02*
X2026Y765D01*
X2065Y765D02*
X2075Y765D01*
X1816Y764D02*
X1826Y764D01*
X1865Y764D02*
X1875Y764D01*
X2016Y764D02*
X2026Y764D01*
X2065Y764D02*
X2075Y764D01*
X1816Y763D02*
X1826Y763D01*
X1865Y763D02*
X1875Y763D01*
X2016Y763D02*
X2026Y763D01*
X2065Y763D02*
X2075Y763D01*
X1816Y762D02*
X1826Y762D01*
X1866Y762D02*
X1875Y762D01*
X2016Y762D02*
X2026Y762D01*
X2066Y762D02*
X2075Y762D01*
X1816Y761D02*
X1825Y761D01*
X1866Y761D02*
X1875Y761D01*
X2016Y761D02*
X2025Y761D01*
X2066Y761D02*
X2075Y761D01*
X1816Y760D02*
X1825Y760D01*
X1866Y760D02*
X1875Y760D01*
X2016Y760D02*
X2025Y760D01*
X2066Y760D02*
X2075Y760D01*
X1816Y759D02*
X1825Y759D01*
X1866Y759D02*
X1875Y759D01*
X2016Y759D02*
X2025Y759D01*
X2066Y759D02*
X2075Y759D01*
X1816Y758D02*
X1826Y758D01*
X1866Y758D02*
X1875Y758D01*
X2016Y758D02*
X2026Y758D01*
X2066Y758D02*
X2075Y758D01*
X1816Y757D02*
X1826Y757D01*
X1865Y757D02*
X1875Y757D01*
X2016Y757D02*
X2026Y757D01*
X2065Y757D02*
X2075Y757D01*
X1816Y756D02*
X1826Y756D01*
X1865Y756D02*
X1875Y756D01*
X2016Y756D02*
X2026Y756D01*
X2065Y756D02*
X2075Y756D01*
X1816Y755D02*
X1826Y755D01*
X1865Y755D02*
X1875Y755D01*
X2016Y755D02*
X2026Y755D01*
X2065Y755D02*
X2075Y755D01*
X1816Y754D02*
X1826Y754D01*
X1865Y754D02*
X1875Y754D01*
X2016Y754D02*
X2026Y754D01*
X2065Y754D02*
X2075Y754D01*
X1816Y753D02*
X1827Y753D01*
X1864Y753D02*
X1875Y753D01*
X2016Y753D02*
X2027Y753D01*
X2064Y753D02*
X2075Y753D01*
X1816Y752D02*
X1827Y752D01*
X1864Y752D02*
X1875Y752D01*
X2016Y752D02*
X2027Y752D01*
X2064Y752D02*
X2075Y752D01*
X1816Y751D02*
X1828Y751D01*
X1863Y751D02*
X1875Y751D01*
X2016Y751D02*
X2028Y751D01*
X2063Y751D02*
X2075Y751D01*
X1816Y750D02*
X1828Y750D01*
X1863Y750D02*
X1875Y750D01*
X2016Y750D02*
X2028Y750D01*
X2063Y750D02*
X2075Y750D01*
X1816Y749D02*
X1829Y749D01*
X1862Y749D02*
X1875Y749D01*
X2016Y749D02*
X2029Y749D01*
X2062Y749D02*
X2075Y749D01*
X1816Y748D02*
X1830Y748D01*
X1862Y748D02*
X1875Y748D01*
X2016Y748D02*
X2030Y748D01*
X2062Y748D02*
X2075Y748D01*
X1816Y747D02*
X1830Y747D01*
X1861Y747D02*
X1875Y747D01*
X2016Y747D02*
X2030Y747D01*
X2061Y747D02*
X2075Y747D01*
X1816Y746D02*
X1831Y746D01*
X1860Y746D02*
X1875Y746D01*
X2016Y746D02*
X2031Y746D01*
X2060Y746D02*
X2075Y746D01*
X1816Y745D02*
X1832Y745D01*
X1859Y745D02*
X1875Y745D01*
X2016Y745D02*
X2032Y745D01*
X2059Y745D02*
X2075Y745D01*
X1816Y744D02*
X1834Y744D01*
X1857Y744D02*
X1875Y744D01*
X2016Y744D02*
X2034Y744D01*
X2057Y744D02*
X2075Y744D01*
X1816Y743D02*
X1835Y743D01*
X1856Y743D02*
X1875Y743D01*
X2016Y743D02*
X2035Y743D01*
X2056Y743D02*
X2075Y743D01*
X1816Y742D02*
X1837Y742D01*
X1854Y742D02*
X1875Y742D01*
X2016Y742D02*
X2037Y742D01*
X2054Y742D02*
X2075Y742D01*
X1816Y741D02*
X1840Y741D01*
X1851Y741D02*
X1875Y741D01*
X2016Y741D02*
X2040Y741D01*
X2051Y741D02*
X2075Y741D01*
X1816Y740D02*
X1875Y740D01*
X2016Y740D02*
X2075Y740D01*
X1816Y739D02*
X1875Y739D01*
X2016Y739D02*
X2075Y739D01*
X1816Y738D02*
X1875Y738D01*
X2016Y738D02*
X2075Y738D01*
X1816Y737D02*
X1875Y737D01*
X2016Y737D02*
X2075Y737D01*
X1816Y736D02*
X1875Y736D01*
X2016Y736D02*
X2075Y736D01*
X1816Y735D02*
X1875Y735D01*
X2016Y735D02*
X2075Y735D01*
X1816Y734D02*
X1875Y734D01*
X2016Y734D02*
X2075Y734D01*
X1816Y733D02*
X1875Y733D01*
X2016Y733D02*
X2075Y733D01*
X1816Y732D02*
X1875Y732D01*
X2016Y732D02*
X2075Y732D01*
X1816Y731D02*
X1875Y731D01*
X2016Y731D02*
X2075Y731D01*
X1816Y489D02*
X1875Y489D01*
X2016Y489D02*
X2075Y489D01*
X1816Y488D02*
X1875Y488D01*
X2016Y488D02*
X2075Y488D01*
X1816Y487D02*
X1875Y487D01*
X2016Y487D02*
X2075Y487D01*
X1816Y486D02*
X1875Y486D01*
X2016Y486D02*
X2075Y486D01*
X1816Y485D02*
X1875Y485D01*
X2016Y485D02*
X2075Y485D01*
X1816Y484D02*
X1875Y484D01*
X2016Y484D02*
X2075Y484D01*
X1816Y483D02*
X1875Y483D01*
X2016Y483D02*
X2075Y483D01*
X1816Y482D02*
X1875Y482D01*
X2016Y482D02*
X2075Y482D01*
X1816Y481D02*
X1875Y481D01*
X2016Y481D02*
X2075Y481D01*
X1816Y480D02*
X1875Y480D01*
X2016Y480D02*
X2075Y480D01*
X1816Y479D02*
X1840Y479D01*
X1851Y479D02*
X1875Y479D01*
X2016Y479D02*
X2040Y479D01*
X2051Y479D02*
X2075Y479D01*
X1816Y478D02*
X1837Y478D01*
X1854Y478D02*
X1875Y478D01*
X2016Y478D02*
X2037Y478D01*
X2054Y478D02*
X2075Y478D01*
X1816Y477D02*
X1835Y477D01*
X1856Y477D02*
X1875Y477D01*
X2016Y477D02*
X2035Y477D01*
X2056Y477D02*
X2075Y477D01*
X1816Y476D02*
X1833Y476D01*
X1858Y476D02*
X1875Y476D01*
X2016Y476D02*
X2033Y476D01*
X2058Y476D02*
X2075Y476D01*
X1816Y475D02*
X1832Y475D01*
X1859Y475D02*
X1875Y475D01*
X2016Y475D02*
X2032Y475D01*
X2059Y475D02*
X2075Y475D01*
X1816Y474D02*
X1831Y474D01*
X1860Y474D02*
X1875Y474D01*
X2016Y474D02*
X2031Y474D01*
X2060Y474D02*
X2075Y474D01*
X1816Y473D02*
X1830Y473D01*
X1861Y473D02*
X1875Y473D01*
X2016Y473D02*
X2030Y473D01*
X2061Y473D02*
X2075Y473D01*
X1816Y472D02*
X1829Y472D01*
X1862Y472D02*
X1875Y472D01*
X2016Y472D02*
X2029Y472D01*
X2062Y472D02*
X2075Y472D01*
X1816Y471D02*
X1829Y471D01*
X1862Y471D02*
X1875Y471D01*
X2016Y471D02*
X2029Y471D01*
X2062Y471D02*
X2075Y471D01*
X1816Y470D02*
X1828Y470D01*
X1863Y470D02*
X1875Y470D01*
X2016Y470D02*
X2028Y470D01*
X2063Y470D02*
X2075Y470D01*
X1816Y469D02*
X1828Y469D01*
X1864Y469D02*
X1875Y469D01*
X2016Y469D02*
X2028Y469D01*
X2064Y469D02*
X2075Y469D01*
X1816Y468D02*
X1827Y468D01*
X1864Y468D02*
X1875Y468D01*
X2016Y468D02*
X2027Y468D01*
X2064Y468D02*
X2075Y468D01*
X1816Y467D02*
X1827Y467D01*
X1864Y467D02*
X1875Y467D01*
X2016Y467D02*
X2027Y467D01*
X2064Y467D02*
X2075Y467D01*
X1816Y466D02*
X1826Y466D01*
X1865Y466D02*
X1875Y466D01*
X2016Y466D02*
X2026Y466D01*
X2065Y466D02*
X2075Y466D01*
X1816Y465D02*
X1826Y465D01*
X1865Y465D02*
X1875Y465D01*
X2016Y465D02*
X2026Y465D01*
X2065Y465D02*
X2075Y465D01*
X1816Y464D02*
X1826Y464D01*
X1865Y464D02*
X1875Y464D01*
X2016Y464D02*
X2026Y464D01*
X2065Y464D02*
X2075Y464D01*
X1816Y463D02*
X1826Y463D01*
X1865Y463D02*
X1875Y463D01*
X2016Y463D02*
X2026Y463D01*
X2065Y463D02*
X2075Y463D01*
X1816Y462D02*
X1826Y462D01*
X1866Y462D02*
X1875Y462D01*
X2016Y462D02*
X2026Y462D01*
X2066Y462D02*
X2075Y462D01*
X1816Y461D02*
X1825Y461D01*
X1866Y461D02*
X1875Y461D01*
X2016Y461D02*
X2025Y461D01*
X2066Y461D02*
X2075Y461D01*
X1816Y460D02*
X1825Y460D01*
X1866Y460D02*
X1875Y460D01*
X2016Y460D02*
X2025Y460D01*
X2066Y460D02*
X2075Y460D01*
X1816Y459D02*
X1826Y459D01*
X1866Y459D02*
X1875Y459D01*
X2016Y459D02*
X2025Y459D01*
X2066Y459D02*
X2075Y459D01*
X1816Y458D02*
X1826Y458D01*
X1866Y458D02*
X1875Y458D01*
X2016Y458D02*
X2026Y458D01*
X2065Y458D02*
X2075Y458D01*
X1816Y457D02*
X1826Y457D01*
X1865Y457D02*
X1875Y457D01*
X2016Y457D02*
X2026Y457D01*
X2065Y457D02*
X2075Y457D01*
X1816Y456D02*
X1826Y456D01*
X1865Y456D02*
X1875Y456D01*
X2016Y456D02*
X2026Y456D01*
X2065Y456D02*
X2075Y456D01*
X1816Y455D02*
X1826Y455D01*
X1865Y455D02*
X1875Y455D01*
X2016Y455D02*
X2026Y455D01*
X2065Y455D02*
X2075Y455D01*
X1816Y454D02*
X1826Y454D01*
X1865Y454D02*
X1875Y454D01*
X2016Y454D02*
X2026Y454D01*
X2065Y454D02*
X2075Y454D01*
X1816Y453D02*
X1827Y453D01*
X1864Y453D02*
X1875Y453D01*
X2016Y453D02*
X2027Y453D01*
X2064Y453D02*
X2075Y453D01*
X1816Y452D02*
X1827Y452D01*
X1864Y452D02*
X1875Y452D01*
X2016Y452D02*
X2027Y452D01*
X2064Y452D02*
X2075Y452D01*
X1816Y451D02*
X1828Y451D01*
X1863Y451D02*
X1875Y451D01*
X2016Y451D02*
X2028Y451D01*
X2063Y451D02*
X2075Y451D01*
X1816Y450D02*
X1828Y450D01*
X1863Y450D02*
X1875Y450D01*
X2016Y450D02*
X2028Y450D01*
X2063Y450D02*
X2075Y450D01*
X1816Y449D02*
X1829Y449D01*
X1862Y449D02*
X1875Y449D01*
X2016Y449D02*
X2029Y449D01*
X2062Y449D02*
X2075Y449D01*
X1816Y448D02*
X1830Y448D01*
X1861Y448D02*
X1875Y448D01*
X2016Y448D02*
X2030Y448D01*
X2061Y448D02*
X2075Y448D01*
X1816Y447D02*
X1831Y447D01*
X1861Y447D02*
X1875Y447D01*
X2016Y447D02*
X2030Y447D01*
X2061Y447D02*
X2075Y447D01*
X1816Y446D02*
X1831Y446D01*
X1860Y446D02*
X1875Y446D01*
X2016Y446D02*
X2031Y446D01*
X2060Y446D02*
X2075Y446D01*
X1816Y445D02*
X1833Y445D01*
X1858Y445D02*
X1875Y445D01*
X2016Y445D02*
X2033Y445D01*
X2058Y445D02*
X2075Y445D01*
X1816Y444D02*
X1834Y444D01*
X1857Y444D02*
X1875Y444D01*
X2016Y444D02*
X2034Y444D01*
X2057Y444D02*
X2075Y444D01*
X1816Y443D02*
X1836Y443D01*
X1856Y443D02*
X1875Y443D01*
X2016Y443D02*
X2036Y443D01*
X2055Y443D02*
X2075Y443D01*
X1816Y442D02*
X1838Y442D01*
X1854Y442D02*
X1875Y442D01*
X2016Y442D02*
X2037Y442D01*
X2054Y442D02*
X2075Y442D01*
X1816Y441D02*
X1841Y441D01*
X1850Y441D02*
X1875Y441D01*
X2016Y441D02*
X2041Y441D01*
X2050Y441D02*
X2075Y441D01*
X1816Y440D02*
X1875Y440D01*
X2016Y440D02*
X2075Y440D01*
X1816Y439D02*
X1875Y439D01*
X2016Y439D02*
X2075Y439D01*
X1816Y438D02*
X1875Y438D01*
X2016Y438D02*
X2075Y438D01*
X1816Y437D02*
X1875Y437D01*
X2016Y437D02*
X2075Y437D01*
X1816Y436D02*
X1875Y436D01*
X2016Y436D02*
X2075Y436D01*
X1816Y435D02*
X1875Y435D01*
X2016Y435D02*
X2075Y435D01*
X1816Y434D02*
X1875Y434D01*
X2016Y434D02*
X2075Y434D01*
X1816Y433D02*
X1875Y433D01*
X2016Y433D02*
X2075Y433D01*
X1816Y432D02*
X1875Y432D01*
X2016Y432D02*
X2075Y432D01*
X1816Y431D02*
X1875Y431D01*
X2016Y431D02*
X2075Y431D01*
X2313Y292D02*
X2377Y292D01*
X2613Y292D02*
X2677Y292D01*
X2313Y291D02*
X2377Y291D01*
X2613Y291D02*
X2677Y291D01*
X2313Y290D02*
X2377Y290D01*
X2613Y290D02*
X2677Y290D01*
X2313Y289D02*
X2377Y289D01*
X2613Y289D02*
X2677Y289D01*
X2313Y288D02*
X2377Y288D01*
X2613Y288D02*
X2677Y288D01*
X2313Y287D02*
X2377Y287D01*
X2613Y287D02*
X2677Y287D01*
X2313Y286D02*
X2377Y286D01*
X2613Y286D02*
X2677Y286D01*
X2313Y285D02*
X2377Y285D01*
X2613Y285D02*
X2677Y285D01*
X2313Y284D02*
X2377Y284D01*
X2613Y284D02*
X2677Y284D01*
X2313Y283D02*
X2377Y283D01*
X2613Y283D02*
X2677Y283D01*
X2313Y282D02*
X2377Y282D01*
X2613Y282D02*
X2677Y282D01*
X2313Y281D02*
X2377Y281D01*
X2613Y281D02*
X2677Y281D01*
X2313Y280D02*
X2377Y280D01*
X2613Y280D02*
X2677Y280D01*
X2313Y279D02*
X2377Y279D01*
X2613Y279D02*
X2677Y279D01*
X2313Y278D02*
X2377Y278D01*
X2613Y278D02*
X2677Y278D01*
X2313Y277D02*
X2377Y277D01*
X2613Y277D02*
X2677Y277D01*
X2313Y276D02*
X2377Y276D01*
X2613Y276D02*
X2677Y276D01*
X2313Y275D02*
X2377Y275D01*
X2613Y275D02*
X2677Y275D01*
X2313Y274D02*
X2377Y274D01*
X2613Y274D02*
X2677Y274D01*
X2313Y273D02*
X2340Y273D01*
X2351Y273D02*
X2377Y273D01*
X2613Y273D02*
X2640Y273D01*
X2651Y273D02*
X2677Y273D01*
X2313Y272D02*
X2338Y272D01*
X2353Y272D02*
X2377Y272D01*
X2613Y272D02*
X2638Y272D01*
X2653Y272D02*
X2677Y272D01*
X2313Y271D02*
X2336Y271D01*
X2354Y271D02*
X2377Y271D01*
X2613Y271D02*
X2636Y271D01*
X2654Y271D02*
X2677Y271D01*
X2313Y270D02*
X2335Y270D01*
X2356Y270D02*
X2377Y270D01*
X2613Y270D02*
X2635Y270D01*
X2656Y270D02*
X2677Y270D01*
X2313Y269D02*
X2334Y269D01*
X2357Y269D02*
X2377Y269D01*
X2613Y269D02*
X2634Y269D01*
X2656Y269D02*
X2677Y269D01*
X2313Y268D02*
X2334Y268D01*
X2357Y268D02*
X2377Y268D01*
X2613Y268D02*
X2634Y268D01*
X2657Y268D02*
X2677Y268D01*
X2313Y267D02*
X2333Y267D01*
X2358Y267D02*
X2377Y267D01*
X2613Y267D02*
X2633Y267D01*
X2658Y267D02*
X2677Y267D01*
X2313Y266D02*
X2332Y266D01*
X2358Y266D02*
X2377Y266D01*
X2613Y266D02*
X2632Y266D01*
X2658Y266D02*
X2677Y266D01*
X2313Y265D02*
X2332Y265D01*
X2359Y265D02*
X2377Y265D01*
X2613Y265D02*
X2632Y265D01*
X2659Y265D02*
X2677Y265D01*
X2313Y264D02*
X2332Y264D01*
X2359Y264D02*
X2377Y264D01*
X2613Y264D02*
X2632Y264D01*
X2659Y264D02*
X2677Y264D01*
X2313Y263D02*
X2331Y263D01*
X2359Y263D02*
X2377Y263D01*
X2613Y263D02*
X2631Y263D01*
X2659Y263D02*
X2677Y263D01*
X2313Y262D02*
X2331Y262D01*
X2360Y262D02*
X2377Y262D01*
X2613Y262D02*
X2631Y262D01*
X2659Y262D02*
X2677Y262D01*
X2313Y261D02*
X2331Y261D01*
X2360Y261D02*
X2377Y261D01*
X2613Y261D02*
X2631Y261D01*
X2660Y261D02*
X2677Y261D01*
X2313Y260D02*
X2331Y260D01*
X2360Y260D02*
X2377Y260D01*
X2613Y260D02*
X2631Y260D01*
X2660Y260D02*
X2677Y260D01*
X2313Y259D02*
X2331Y259D01*
X2360Y259D02*
X2377Y259D01*
X2613Y259D02*
X2631Y259D01*
X2660Y259D02*
X2677Y259D01*
X2313Y258D02*
X2331Y258D01*
X2360Y258D02*
X2377Y258D01*
X2613Y258D02*
X2631Y258D01*
X2659Y258D02*
X2677Y258D01*
X2313Y257D02*
X2332Y257D01*
X2359Y257D02*
X2377Y257D01*
X2613Y257D02*
X2632Y257D01*
X2659Y257D02*
X2677Y257D01*
X2313Y256D02*
X2332Y256D01*
X2359Y256D02*
X2377Y256D01*
X2613Y256D02*
X2632Y256D01*
X2659Y256D02*
X2677Y256D01*
X2313Y255D02*
X2332Y255D01*
X2359Y255D02*
X2377Y255D01*
X2613Y255D02*
X2632Y255D01*
X2659Y255D02*
X2677Y255D01*
X2313Y254D02*
X2333Y254D01*
X2358Y254D02*
X2377Y254D01*
X2613Y254D02*
X2633Y254D01*
X2658Y254D02*
X2677Y254D01*
X2313Y253D02*
X2333Y253D01*
X2358Y253D02*
X2377Y253D01*
X2613Y253D02*
X2633Y253D01*
X2658Y253D02*
X2677Y253D01*
X2313Y252D02*
X2334Y252D01*
X2357Y252D02*
X2377Y252D01*
X2613Y252D02*
X2634Y252D01*
X2657Y252D02*
X2677Y252D01*
X2313Y251D02*
X2335Y251D01*
X2356Y251D02*
X2377Y251D01*
X2613Y251D02*
X2635Y251D01*
X2656Y251D02*
X2677Y251D01*
X2313Y250D02*
X2336Y250D01*
X2355Y250D02*
X2377Y250D01*
X2613Y250D02*
X2636Y250D01*
X2655Y250D02*
X2677Y250D01*
X2313Y249D02*
X2337Y249D01*
X2354Y249D02*
X2377Y249D01*
X2613Y249D02*
X2637Y249D01*
X2654Y249D02*
X2677Y249D01*
X2313Y248D02*
X2339Y248D01*
X2352Y248D02*
X2377Y248D01*
X2613Y248D02*
X2639Y248D01*
X2652Y248D02*
X2677Y248D01*
X2313Y247D02*
X2341Y247D01*
X2350Y247D02*
X2377Y247D01*
X2613Y247D02*
X2641Y247D01*
X2649Y247D02*
X2677Y247D01*
X2313Y246D02*
X2377Y246D01*
X2613Y246D02*
X2677Y246D01*
X2313Y245D02*
X2377Y245D01*
X2613Y245D02*
X2677Y245D01*
X2313Y244D02*
X2377Y244D01*
X2613Y244D02*
X2677Y244D01*
X2313Y243D02*
X2377Y243D01*
X2613Y243D02*
X2677Y243D01*
X2313Y242D02*
X2377Y242D01*
X2613Y242D02*
X2677Y242D01*
X2313Y241D02*
X2377Y241D01*
X2613Y241D02*
X2677Y241D01*
X2313Y240D02*
X2377Y240D01*
X2613Y240D02*
X2677Y240D01*
X2313Y239D02*
X2377Y239D01*
X2613Y239D02*
X2677Y239D01*
X2313Y238D02*
X2377Y238D01*
X2613Y238D02*
X2677Y238D01*
X2313Y237D02*
X2377Y237D01*
X2613Y237D02*
X2677Y237D01*
X2313Y236D02*
X2377Y236D01*
X2613Y236D02*
X2677Y236D01*
X2313Y235D02*
X2377Y235D01*
X2613Y235D02*
X2677Y235D01*
X2313Y234D02*
X2377Y234D01*
X2613Y234D02*
X2677Y234D01*
X2313Y233D02*
X2377Y233D01*
X2613Y233D02*
X2677Y233D01*
X2313Y232D02*
X2377Y232D01*
X2613Y232D02*
X2677Y232D01*
X2313Y231D02*
X2377Y231D01*
X2613Y231D02*
X2677Y231D01*
X2313Y230D02*
X2377Y230D01*
X2613Y230D02*
X2677Y230D01*
X2313Y229D02*
X2377Y229D01*
X2613Y229D02*
X2677Y229D01*
X2314Y228D02*
X2377Y228D01*
X2614Y228D02*
X2677Y228D01*
D02*
G04 End of Copper0*
M02*